Coordinates
version=1
nRows=13
nColumns=18
inDegrees=yes

Units are S.I. units (second, meters, Newtons, ...)
If the header above contains a line with 'inDegrees', this indicates whether rotational values are in degrees (yes) or radians (no).

endheader
time	ground_thorax_rot_x	ground_thorax_rot_y	ground_thorax_rot_z	ground_thorax_tx	ground_thorax_ty	ground_thorax_tz	clav_prot	clav_elev	scapula_abduction	scapula_elevation	scapula_upward_rot	scapula_winging	plane_elv	shoulder_elv	axial_rot	elbow_flexion	pro_sup
      1.00000000	      0.88114277	    -13.92056116	    -12.87387143	     -0.02670710	      0.01485904	      0.02686288	    -22.32921632	    -16.52753106	    -11.93702903	    -13.96768922	     15.29918310	     24.88419940	    -16.00000002	     30.15268267	     37.72428173	      0.00120871	      0.00000001
      1.02000000	      0.61018540	    -14.10150839	    -12.79397557	     -0.02773761	      0.01563170	      0.02647079	    -22.50831015	    -16.58112705	    -11.84277192	    -14.15032175	     15.86634893	     24.87485617	    -16.00000002	     31.09721062	     37.25387121	      0.00120871	      0.00000001
      1.04000000	      0.33647403	    -14.25675365	    -12.70860847	     -0.02883391	      0.01642898	      0.02604164	    -22.68145063	    -16.63056337	    -11.72774189	    -14.33195747	     16.45147031	     24.85929618	    -16.00000002	     32.10905280	     36.79341661	      0.00120871	      0.00000001
      1.06000000	      0.06096451	    -14.42648634	    -12.57498501	     -0.02996704	      0.01731405	      0.02566550	    -22.85143772	    -16.66847171	    -11.59726709	    -14.50745114	     17.05597869	     24.83366490	    -16.00000002	     33.15045124	     36.29821936	      0.00120871	      0.00000001
      1.08000000	     -0.21230254	    -14.61019349	    -12.39569649	     -0.03113431	      0.01828043	      0.02535357	    -23.01939083	    -16.69356922	    -11.44564716	    -14.67855453	     17.69221326	     24.79560988	    -16.00000002	     34.20957735	     35.74457839	      0.00120871	      0.00000001
      1.10000000	     -0.47984784	    -14.79970166	    -12.17821670	     -0.03233703	      0.01931408	      0.02507587	    -23.18199862	    -16.70107076	    -11.26370973	    -14.84330145	     18.36914097	     24.74015009	    -16.00000002	     35.28347271	     35.11339828	      0.00120871	      0.00000001
      1.12000000	     -0.72854710	    -14.98650523	    -11.93221951	     -0.03359378	      0.02040643	      0.02480644	    -23.32850908	    -16.67583660	    -11.03108083	    -14.99286905	     19.10147355	     24.65349484	    -16.00000002	     36.37376376	     34.35978304	      0.00120871	      0.00000001
      1.14000000	     -0.95749310	    -15.18351064	    -11.64701749	     -0.03490631	      0.02157584	      0.02458795	    -23.46255431	    -16.61289636	    -10.74427639	    -15.12669395	     19.90438666	     24.53136496	    -16.00000002	     37.44878615	     33.46418031	      0.00120871	      0.00000001
      1.16000000	     -0.83187969	    -15.39528104	    -11.47002712	     -0.03631233	      0.02205595	      0.02427642	    -23.51096712	    -15.89979389	     -9.91006303	    -14.98539801	     21.69538608	     23.85655324	    -16.00000002	     38.06668490	     31.21416792	      0.00120871	      0.00000001
      1.18000000	     -1.18858151	    -15.63451441	    -11.02485838	     -0.03755373	      0.02352724	      0.02434212	    -23.72896394	    -15.92620697	     -9.74776397	    -15.16582806	     22.42631906	     23.81795866	    -16.00000002	     39.00642867	     30.67446743	      0.00120871	      0.00000001
      1.20000000	     -1.11867046	    -15.80371539	    -10.82191289	     -0.03903405	      0.02412289	      0.02404779	    -23.77506800	    -15.27453521	     -8.92901429	    -15.03389482	     24.10519797	     23.20381536	    -16.00000002	     39.74970307	     28.33931652	      0.00120871	      0.00000001
      1.22000000	     -1.14513368	    -15.97897286	    -10.46933189	     -0.04035468	      0.02510884	      0.02405040	    -23.99997971	    -14.78809274	     -8.39274640	    -14.99425498	     25.64127234	     22.75158542	    -16.00000002	     40.36230579	     26.92425009	      0.00120871	      0.00000001
      1.24000000	     -1.17697707	    -16.15711067	    -10.07691881	     -0.04170826	      0.02617328	      0.02408826	    -24.19262169	    -14.29854913	     -7.82777421	    -14.93353861	     27.12629060	     22.30242845	    -16.00000002	     41.01657855	     25.48989293	      0.00120871	      0.00000001
